<?xml version="1.0" standalone="no"?><!DOCTYPE svg PUBLIC "-//W3C//DTD SVG 1.1//EN" "http://www.w3.org/Graphics/SVG/1.1/DTD/svg11.dtd"><svg t="1667099960484" class="icon" viewBox="0 0 1024 1024" version="1.1" xmlns="http://www.w3.org/2000/svg" p-id="4864" xmlns:xlink="http://www.w3.org/1999/xlink" width="200" height="200"><path d="M841.3 910c-15.6 0-31.1-6.1-42.7-18.3L611.2 694c-22.3-23.6-21.3-60.7 2.2-83.1 23.6-22.3 60.8-21.3 83.1 2.2l187.4 197.7c22.3 23.6 21.3 60.7-2.2 83.1-11.4 10.8-25.9 16.1-40.4 16.1z" fill="#BDD2EF" p-id="4865"></path><path d="M450.4 760.7c-3 0-5.9 0-8.9-0.1-86-2.3-166-38-225.2-100.4-59.2-62.5-90.5-144.2-88.2-230.2 2.3-86 38-166 100.4-225.2 62.5-59.2 144.2-90.5 230.2-88.2 86 2.3 166 38 225.2 100.4 59.2 62.5 90.5 144.2 88.2 230.2-2.3 86-38 166-100.4 225.2-60.3 57.1-138.6 88.3-221.3 88.3z m-0.4-548.2c-58.1 0-113 21.9-155.3 62-43.8 41.5-68.8 97.6-70.5 158-1.6 60.3 20.4 117.7 61.9 161.5s97.6 68.8 158 70.5c60.3 1.6 117.7-20.4 161.5-61.9s68.8-97.6 70.5-158c1.6-60.3-20.3-117.7-61.9-161.5-41.5-43.8-97.6-68.8-158-70.5-2.1 0-4.1-0.1-6.2-0.1z" fill="#2867CE" p-id="4866"></path></svg>